# Blender 5.0.0
# www.blender.org
mtllib llanta_race.mtl
o race.001
v 0.550000 0.150000 0.380079
v 0.650000 0.172500 0.419050
v 0.550000 0.222354 0.350108
v 0.650000 0.234001 0.393575
v 0.450000 0.377646 0.350108
v 0.550000 0.377646 0.350108
v 0.450000 0.450000 0.380079
v 0.550000 0.450000 0.380079
v 0.450000 0.589778 0.717532
v 0.450000 0.600000 0.639886
v 0.550000 0.589778 0.717532
v 0.550000 0.600000 0.639886
v 0.550000 0.222354 0.929664
v 0.450000 0.222354 0.929664
v 0.550000 0.300000 0.939886
v 0.450000 0.300000 0.939886
v 0.450000 0.559808 0.489886
v 0.550000 0.559808 0.489886
v 0.450000 0.589778 0.562240
v 0.550000 0.589778 0.562240
v 0.450000 0.150000 0.380079
v 0.450000 0.222354 0.350108
v 0.650000 0.365999 0.393575
v 0.650000 0.427500 0.419050
v 0.450000 0.559808 0.789886
v 0.550000 0.559808 0.789886
v 0.450000 0.512132 0.427754
v 0.550000 0.512132 0.427754
v 0.550000 0.000000 0.639886
v 0.550000 0.010222 0.717532
v 0.650000 0.045000 0.639886
v 0.650000 0.053689 0.705885
v 0.650000 0.546311 0.573887
v 0.650000 0.555000 0.639886
v 0.650000 0.234001 0.886197
v 0.650000 0.300000 0.894886
v 0.450000 0.010222 0.717532
v 0.450000 0.040192 0.789886
v 0.550000 0.040192 0.789886
v 0.650000 0.365999 0.886197
v 0.550000 0.377646 0.929664
v 0.650000 0.427500 0.860723
v 0.550000 0.450000 0.899694
v 0.550000 0.300000 0.339886
v 0.650000 0.300000 0.384886
v 0.450000 0.040192 0.489886
v 0.450000 0.010222 0.562240
v 0.550000 0.040192 0.489886
v 0.550000 0.010222 0.562240
v 0.650000 0.079164 0.767386
v 0.650000 0.520837 0.512386
v 0.650000 0.480312 0.459574
v 0.450000 0.300000 0.339886
v 0.450000 0.377646 0.929664
v 0.450000 0.450000 0.899694
v 0.650000 0.546311 0.705885
v 0.550000 0.150000 0.899694
v 0.650000 0.172500 0.860723
v 0.650000 0.053689 0.573887
v 0.650000 0.480312 0.820198
v 0.550000 0.512132 0.852018
v 0.450000 0.000000 0.639886
v 0.450000 0.150000 0.899694
v 0.650000 0.520837 0.767386
v 0.550000 0.087868 0.852018
v 0.650000 0.119688 0.820198
v 0.650000 0.079164 0.512386
v 0.550000 0.087868 0.427754
v 0.650000 0.119688 0.459574
v 0.450000 0.512132 0.852018
v 0.450000 0.087868 0.427754
v 0.450000 0.087868 0.852018
v 0.350000 0.300000 0.894886
v 0.350000 0.365999 0.886197
v 0.350000 0.427500 0.860723
v 0.350000 0.480312 0.820198
v 0.350000 0.546311 0.705885
v 0.350000 0.520837 0.767386
v 0.350000 0.234001 0.393575
v 0.350000 0.300000 0.384886
v 0.350000 0.234001 0.886197
v 0.350000 0.172500 0.860723
v 0.350000 0.119688 0.820198
v 0.350000 0.079164 0.767386
v 0.350000 0.053689 0.705885
v 0.350000 0.555000 0.639886
v 0.350000 0.045000 0.639886
v 0.350000 0.546311 0.573887
v 0.350000 0.053689 0.573887
v 0.350000 0.520837 0.512386
v 0.350000 0.079164 0.512386
v 0.350000 0.480312 0.459574
v 0.350000 0.119688 0.459574
v 0.350000 0.427500 0.419050
v 0.350000 0.172500 0.419050
v 0.350000 0.365999 0.393575
v 0.550000 0.371139 0.680958
v 0.550000 0.358085 0.697971
v 0.650000 0.394852 0.694649
v 0.650000 0.377446 0.717332
v 0.550000 0.228861 0.598814
v 0.650000 0.205148 0.585123
v 0.550000 0.220655 0.618626
v 0.650000 0.194207 0.611539
v 0.550000 0.300000 0.722030
v 0.550000 0.321261 0.719231
v 0.550000 0.278740 0.719231
v 0.550000 0.258928 0.711025
v 0.550000 0.341072 0.711025
v 0.550000 0.241915 0.697971
v 0.550000 0.228861 0.680958
v 0.550000 0.220655 0.661147
v 0.550000 0.379345 0.661147
v 0.550000 0.217856 0.639886
v 0.550000 0.382144 0.639886
v 0.550000 0.379345 0.618626
v 0.550000 0.371139 0.598814
v 0.550000 0.241915 0.581802
v 0.550000 0.358085 0.581802
v 0.550000 0.258928 0.568747
v 0.550000 0.341072 0.568747
v 0.550000 0.278740 0.560541
v 0.550000 0.321261 0.560541
v 0.550000 0.300000 0.557742
v 0.650000 0.300000 0.749412
v 0.650000 0.328347 0.745680
v 0.650000 0.354763 0.545034
v 0.650000 0.377446 0.562440
v 0.650000 0.245237 0.734738
v 0.650000 0.271653 0.745680
v 0.650000 0.222554 0.562440
v 0.650000 0.222554 0.717332
v 0.650000 0.245237 0.545034
v 0.650000 0.354763 0.734738
v 0.650000 0.405794 0.611539
v 0.650000 0.409526 0.639886
v 0.650000 0.405794 0.668233
v 0.650000 0.394852 0.585123
v 0.650000 0.271653 0.534093
v 0.650000 0.300000 0.530361
v 0.650000 0.328347 0.534093
v 0.650000 0.205148 0.694649
v 0.650000 0.194207 0.668234
v 0.650000 0.190475 0.639886
v 0.650000 0.300000 0.475006
v 0.650000 0.257326 0.480624
v 0.650000 0.342674 0.480624
v 0.650000 0.382440 0.497096
v 0.650000 0.217560 0.497096
v 0.650000 0.183412 0.523298
v 0.650000 0.416588 0.523298
v 0.650000 0.442790 0.557446
v 0.650000 0.157210 0.557446
v 0.650000 0.459262 0.597212
v 0.650000 0.405793 0.611539
v 0.650000 0.464880 0.639886
v 0.650000 0.409525 0.639886
v 0.650000 0.140738 0.597212
v 0.650000 0.459262 0.682560
v 0.650000 0.405793 0.668233
v 0.650000 0.135120 0.639886
v 0.650000 0.190475 0.639886
v 0.650000 0.140738 0.682560
v 0.650000 0.442790 0.722326
v 0.650000 0.157210 0.722326
v 0.650000 0.416588 0.756474
v 0.650000 0.183412 0.756474
v 0.650000 0.382440 0.782677
v 0.650000 0.217560 0.782677
v 0.650000 0.342674 0.799148
v 0.650000 0.257326 0.799148
v 0.650000 0.300000 0.804766
v 0.650000 0.183412 0.756474
v 0.650000 0.416588 0.756474
v 0.650000 0.157210 0.722326
v 0.650000 0.442790 0.722326
v 0.650000 0.459262 0.682560
v 0.650000 0.157210 0.557446
v 0.650000 0.459262 0.597212
v 0.650000 0.442790 0.557446
v 0.650000 0.183412 0.523298
v 0.650000 0.416588 0.523298
vn 0.2064 -0.2532 -0.9451
vn 0.4104 -0.4560 -0.7897
vn 0.2064 -0.4892 -0.8474
vn 0.4104 -0.2360 -0.8808
vn -0.2064 0.4892 -0.8474
vn 0.2064 0.2532 -0.9451
vn -0.2064 0.2532 -0.9451
vn 0.2064 0.4892 -0.8474
vn 0.2064 0.9451 0.2532
vn -0.2064 0.9785 -0.0000
vn -0.2064 0.9451 0.2532
vn 0.2064 0.9785 -0.0000
vn 0.2064 -0.0000 0.9785
vn -0.2064 -0.2532 0.9451
vn 0.2064 -0.2532 0.9451
vn -0.2064 -0.0000 0.9785
vn -0.2064 0.9451 -0.2532
vn 0.2064 0.8474 -0.4892
vn -0.2064 0.8474 -0.4892
vn 0.2064 0.9451 -0.2532
vn -0.2064 -0.2532 -0.9451
vn -0.2064 -0.4892 -0.8474
vn 0.4104 0.4560 -0.7897
vn 0.4104 0.2360 -0.8808
vn -0.2064 0.8474 0.4892
vn 0.2064 0.8474 0.4892
vn -0.2064 0.6919 -0.6919
vn 0.2064 0.6919 -0.6919
vn 0.4104 -0.9119 -0.0000
vn 0.2064 -0.9451 0.2533
vn 0.2064 -0.9785 -0.0000
vn 0.4104 -0.8808 0.2360
vn 0.4104 0.8808 -0.2360
vn 0.4104 0.9119 -0.0000
vn 0.4104 -0.2360 0.8808
vn 0.4104 -0.0000 0.9119
vn -0.2064 -0.8474 0.4892
vn -0.2064 -0.9451 0.2532
vn 0.2064 -0.8474 0.4892
vn 0.4104 0.4560 0.7897
vn 0.2064 0.2532 0.9451
vn 0.4104 0.2360 0.8808
vn 0.2064 0.4892 0.8474
vn 0.4104 -0.0000 -0.9119
vn 0.2064 -0.0000 -0.9785
vn 0.2064 -0.8474 -0.4892
vn -0.2064 -0.9451 -0.2533
vn -0.2064 -0.8474 -0.4892
vn 0.2064 -0.9451 -0.2532
vn 0.4104 -0.7897 0.4560
vn 0.4104 0.7897 -0.4560
vn 0.4104 0.6448 -0.6448
vn -0.2064 -0.0000 -0.9785
vn -0.2064 0.2532 0.9451
vn -0.2064 0.4892 0.8474
vn 0.4104 0.8808 0.2360
vn 0.4104 -0.4560 0.7897
vn 0.2064 -0.4892 0.8474
vn 0.4104 -0.8808 -0.2360
vn 0.4104 0.6448 0.6448
vn 0.2064 0.6919 0.6919
vn -0.2064 -0.9785 -0.0000
vn -0.2064 -0.4892 0.8474
vn 0.4104 0.7897 0.4560
vn 0.4104 -0.6448 0.6448
vn 0.2064 -0.6919 0.6919
vn 0.2064 -0.6919 -0.6919
vn 0.4104 -0.7897 -0.4560
vn 0.4104 -0.6448 -0.6448
vn -0.2064 0.6919 0.6919
vn -0.2064 -0.6919 -0.6919
vn -0.2064 -0.6919 0.6919
vn -0.4104 -0.0000 0.9119
vn -0.4104 0.2360 0.8808
vn -0.4104 0.4560 0.7897
vn -0.4104 0.6448 0.6448
vn -0.4104 0.7897 0.4560
vn -0.4104 0.8808 0.2360
vn -0.4104 -0.2360 -0.8808
vn -0.4104 -0.0000 -0.9119
vn -1.0000 -0.0000 -0.0000
vn -0.4104 -0.7897 -0.4560
vn -0.4104 -0.6448 -0.6448
vn -0.4104 0.4560 -0.7897
vn -0.4104 0.2360 -0.8808
vn -0.4104 -0.4560 -0.7897
vn -0.4104 -0.8808 -0.2360
vn -0.4104 -0.9119 -0.0000
vn -0.4104 -0.8808 0.2360
vn -0.4104 -0.7897 0.4560
vn -0.4104 -0.6448 0.6448
vn -0.4104 -0.4560 0.7897
vn -0.4104 -0.2360 0.8808
vn -0.4104 0.6448 -0.6448
vn -0.4104 0.9119 -0.0000
vn -0.4104 0.8808 -0.2360
vn -0.4104 0.7897 -0.4560
vn 0.2641 -0.8353 -0.4823
vn 0.2641 -0.6820 -0.6820
vn 0.2641 -0.8353 -0.4822
vn 0.2641 0.9316 0.2496
vn 0.2641 0.8353 0.4822
vn 0.2641 0.9316 0.2497
vn 1.0000 -0.0000 -0.0000
vn 0.2641 -0.2496 -0.9316
vn 0.2641 -0.0000 -0.9645
vn 0.2641 -0.4822 0.8353
vn 0.2641 -0.6820 0.6820
vn 0.2641 -0.4823 0.8353
vn 0.2641 0.4823 -0.8353
vn 0.2641 0.2496 -0.9316
vn 0.2641 0.4822 -0.8353
vn 0.2641 0.6820 0.6820
vn 0.2641 0.6820 -0.6820
vn 0.2641 0.4822 0.8353
vn 0.2641 0.4823 0.8353
vn 0.2641 -0.4822 -0.8353
vn 0.2641 -0.4823 -0.8353
vn 0.2641 -0.9316 0.2496
vn 0.2641 -0.9645 -0.0000
vn 0.2641 -0.9316 -0.2496
vn 0.2641 -0.9316 -0.2497
vn 0.2641 -0.8353 0.4822
vn 0.2641 -0.0000 0.9645
vn 0.2641 0.2496 0.9316
vn 0.2641 -0.2496 0.9316
vn 0.2641 0.8353 -0.4822
vn 0.2641 0.9316 -0.2496
vn 0.2641 0.9645 -0.0000
vt 0.593750 0.025000
vt 0.593750 0.125000
vt 0.593750 0.076764
vt 0.593750 0.218185
vt 0.593750 0.225000
vt 0.593750 0.198205
vt 0.593750 0.110000
vt 0.593750 0.068999
vt 0.593750 0.166421
vt 0.593750 0.189207
vt 0.593750 0.195000
vt 0.593750 0.172224
vt 0.593750 0.145208
vt 0.718750 0.088235
vt 0.718750 0.063723
vt 0.718750 0.072426
vt 0.718750 0.076631
vt 0.718750 0.025000
vt 0.718750 0.039174
vt 0.718750 0.052381
vt 0.718750 0.077897
vt 0.718750 0.079763
vt 0.718750 0.043898
vt 0.718750 0.061508
vt 0.718750 0.095529
vt 0.718750 0.098017
vt 0.718750 0.150882
vt 0.718750 0.099118
vt 0.718750 0.125000
vt 0.718750 0.175000
vt 0.718750 0.075000
vt 0.718750 0.054289
vt 0.718750 0.195711
vt 0.718750 0.142193
vt 0.718750 0.107807
vt 0.718750 0.211602
vt 0.718750 0.158214
vt 0.718750 0.171971
vt 0.718750 0.038397
vt 0.718750 0.091786
vt 0.718750 0.078029
vt 0.718750 0.221593
vt 0.718750 0.182528
vt 0.718750 0.189164
vt 0.718750 0.225000
vt 0.718750 0.191427
vt 0.718750 0.028407
vt 0.718750 0.067472
vt 0.718750 0.060836
vt 0.718750 0.058573
vt 0.843750 0.275000
vt 0.843750 0.318999
vt 0.843750 0.360000
vt 0.843750 0.395208
vt 0.843750 0.303449
vt 0.843750 0.422224
vt 0.843750 0.329960
vt 0.843750 0.352725
vt 0.843750 0.439207
vt 0.843750 0.370194
vt 0.843750 0.381175
vt 0.843750 0.445000
vt 0.843750 0.384920
s 1
usemtl colormap.013
f 3/1/1 2/1/2 1/1/3
f 2/1/2 3/1/1 4/1/4
f 7/2/5 6/3/6 5/3/7
f 6/3/6 7/2/5 8/2/8
f 11/4/9 10/5/10 9/4/11
f 10/5/10 11/4/9 12/5/12
f 15/1/13 14/1/14 13/1/15
f 14/1/14 15/1/13 16/1/16
f 19/4/17 18/6/18 17/6/19
f 18/6/18 19/4/17 20/4/20
f 22/1/21 1/1/3 21/1/22
f 1/1/3 22/1/21 3/1/1
f 6/3/6 24/7/23 23/8/24
f 24/7/23 6/3/6 8/2/8
f 25/6/25 11/4/9 9/4/11
f 11/4/9 25/6/25 26/6/26
f 27/9/27 8/2/8 7/2/5
f 8/2/8 27/9/27 28/9/28
f 31/1/29 30/1/30 29/1/31
f 30/1/30 31/1/29 32/1/32
f 12/5/12 33/10/33 20/4/20
f 33/10/33 12/5/12 34/11/34
f 35/1/35 15/1/13 13/1/15
f 15/1/13 35/1/35 36/1/36
f 30/1/30 38/1/37 37/1/38
f 38/1/37 30/1/30 39/1/39
f 42/7/40 41/3/41 40/8/42
f 41/3/41 42/7/40 43/2/43
f 6/3/6 45/1/44 44/1/45
f 45/1/44 6/3/6 23/8/24
f 48/1/46 47/1/47 46/1/48
f 47/1/47 48/1/46 49/1/49
f 32/1/32 39/1/39 30/1/30
f 39/1/39 32/1/32 50/1/50
f 51/12/51 28/9/28 18/6/18
f 28/9/28 51/12/51 52/13/52
f 44/1/45 4/1/4 3/1/1
f 4/1/4 44/1/45 45/1/44
f 20/4/20 51/12/51 18/6/18
f 51/12/51 20/4/20 33/10/33
f 53/1/53 3/1/1 22/1/21
f 3/1/1 53/1/53 44/1/45
f 43/2/43 54/3/54 41/3/41
f 54/3/54 43/2/43 55/2/55
f 56/10/56 12/5/12 11/4/9
f 12/5/12 56/10/56 34/11/34
f 58/1/57 13/1/15 57/1/58
f 13/1/15 58/1/57 35/1/35
f 59/1/59 29/1/31 49/1/49
f 29/1/31 59/1/59 31/1/29
f 60/13/60 43/2/43 42/7/40
f 43/2/43 60/13/60 61/9/61
f 29/1/31 37/1/38 62/1/62
f 37/1/38 29/1/31 30/1/30
f 5/3/7 44/1/45 53/1/53
f 44/1/45 5/3/7 6/3/6
f 13/1/15 63/1/63 57/1/58
f 63/1/63 13/1/15 14/1/14
f 26/6/26 56/10/56 11/4/9
f 56/10/56 26/6/26 64/12/64
f 66/1/65 57/1/58 65/1/66
f 57/1/58 66/1/65 58/1/57
f 8/2/8 52/13/52 24/7/23
f 52/13/52 8/2/8 28/9/28
f 68/1/67 67/1/68 48/1/46
f 67/1/68 68/1/67 69/1/69
f 67/1/68 49/1/49 48/1/46
f 49/1/49 67/1/68 59/1/59
f 49/1/49 62/1/62 47/1/47
f 62/1/62 49/1/49 29/1/31
f 41/3/41 16/1/16 15/1/13
f 16/1/16 41/3/41 54/3/54
f 50/1/50 65/1/66 39/1/39
f 65/1/66 50/1/50 66/1/65
f 70/9/70 26/6/26 25/6/25
f 26/6/26 70/9/70 61/9/61
f 1/1/3 69/1/69 68/1/67
f 69/1/69 1/1/3 2/1/2
f 40/8/42 15/1/13 36/1/36
f 15/1/13 40/8/42 41/3/41
f 71/1/71 48/1/46 46/1/48
f 48/1/46 71/1/71 68/1/67
f 61/9/61 64/12/64 26/6/26
f 64/12/64 61/9/61 60/13/60
f 10/5/10 20/4/20 19/4/17
f 20/4/20 10/5/10 12/5/12
f 18/6/18 27/9/27 17/6/19
f 27/9/27 18/6/18 28/9/28
f 39/1/39 72/1/72 38/1/37
f 72/1/72 39/1/39 65/1/66
f 61/9/61 55/2/55 43/2/43
f 55/2/55 61/9/61 70/9/70
f 57/1/58 72/1/72 65/1/66
f 72/1/72 57/1/58 63/1/63
f 21/1/22 68/1/67 71/1/71
f 68/1/67 21/1/22 1/1/3
f 54/3/54 73/1/73 16/1/16
f 73/1/73 54/3/54 74/8/74
f 54/3/54 75/7/75 74/8/74
f 75/7/75 54/3/54 55/2/55
f 55/2/55 76/13/76 75/7/75
f 76/13/76 55/2/55 70/9/70
f 78/12/77 9/4/11 77/10/78
f 9/4/11 78/12/77 25/6/25
f 79/1/79 53/1/53 22/1/21
f 53/1/53 79/1/79 80/1/80
f 74/8/81 81/1/81 73/1/81
f 81/1/81 74/8/81 75/7/81
f 81/1/81 75/7/81 82/1/81
f 82/1/81 75/7/81 76/13/81
f 82/1/81 76/13/81 83/1/81
f 83/1/81 76/13/81 78/12/81
f 83/1/81 78/12/81 84/1/81
f 84/1/81 78/12/81 77/10/81
f 84/1/81 77/10/81 85/1/81
f 85/1/81 77/10/81 86/11/81
f 85/1/81 86/11/81 87/1/81
f 87/1/81 86/11/81 88/10/81
f 87/1/81 88/10/81 89/1/81
f 89/1/81 88/10/81 90/12/81
f 89/1/81 90/12/81 91/1/81
f 91/1/81 90/12/81 92/13/81
f 91/1/81 92/13/81 93/1/81
f 93/1/81 92/13/81 94/7/81
f 93/1/81 94/7/81 95/1/81
f 95/1/81 94/7/81 96/8/81
f 95/1/81 96/8/81 79/1/81
f 79/1/81 96/8/81 80/1/81
f 71/1/71 91/1/82 93/1/83
f 91/1/82 71/1/71 46/1/48
f 94/7/84 5/3/7 96/8/85
f 5/3/7 94/7/84 7/2/5
f 95/1/86 22/1/21 21/1/22
f 22/1/21 95/1/86 79/1/79
f 46/1/48 89/1/87 91/1/82
f 89/1/87 46/1/48 47/1/47
f 96/8/85 53/1/53 80/1/80
f 53/1/53 96/8/85 5/3/7
f 47/1/47 87/1/88 89/1/87
f 87/1/88 47/1/47 62/1/62
f 62/1/62 85/1/89 87/1/88
f 85/1/89 62/1/62 37/1/38
f 93/1/83 21/1/22 71/1/71
f 21/1/22 93/1/83 95/1/86
f 37/1/38 84/1/90 85/1/89
f 84/1/90 37/1/38 38/1/37
f 38/1/37 83/1/91 84/1/90
f 83/1/91 38/1/37 72/1/72
f 63/1/63 83/1/91 72/1/72
f 83/1/91 63/1/63 82/1/92
f 16/1/16 81/1/93 14/1/14
f 81/1/93 16/1/16 73/1/73
f 92/13/94 7/2/5 94/7/84
f 7/2/5 92/13/94 27/9/27
f 14/1/14 82/1/92 63/1/63
f 82/1/92 14/1/14 81/1/93
f 77/10/78 10/5/10 86/11/95
f 10/5/10 77/10/78 9/4/11
f 88/10/96 17/6/19 90/12/97
f 17/6/19 88/10/96 19/4/17
f 86/11/95 19/4/17 88/10/96
f 19/4/17 86/11/95 10/5/10
f 76/13/76 25/6/25 78/12/77
f 25/6/25 76/13/76 70/9/70
f 90/12/97 27/9/27 92/13/94
f 27/9/27 90/12/97 17/6/19
f 99/14/98 98/15/99 97/16/100
f 98/15/99 99/14/98 100/17/99
f 103/18/101 102/18/102 101/18/102
f 102/18/102 103/18/101 104/18/103
f 107/18/104 106/19/104 105/18/104
f 106/19/104 107/18/104 108/18/104
f 106/19/104 108/18/104 109/20/104
f 109/20/104 108/18/104 110/18/104
f 109/20/104 110/18/104 98/15/104
f 98/15/104 110/18/104 111/18/104
f 98/15/104 111/18/104 97/16/104
f 97/16/104 111/18/104 112/18/104
f 97/16/104 112/18/104 113/21/104
f 113/21/104 112/18/104 114/18/104
f 113/21/104 114/18/104 115/22/104
f 115/22/104 114/18/104 103/18/104
f 115/22/104 103/18/104 116/21/104
f 116/21/104 103/18/104 101/18/104
f 116/21/104 101/18/104 117/16/104
f 117/16/104 101/18/104 118/18/104
f 117/16/104 118/18/104 119/15/104
f 119/15/104 118/18/104 120/18/104
f 119/15/104 120/18/104 121/20/104
f 121/20/104 120/18/104 122/18/104
f 121/20/104 122/18/104 123/19/104
f 123/19/104 122/18/104 124/18/104
f 106/19/105 125/18/106 105/18/106
f 125/18/106 106/19/105 126/23/105
f 127/24/107 119/15/108 121/20/109
f 119/15/108 127/24/107 128/17/108
f 108/18/110 130/18/111 129/18/112
f 130/18/111 108/18/110 107/18/111
f 102/18/102 118/18/113 101/18/102
f 118/18/113 102/18/102 131/18/113
f 110/18/114 129/18/112 132/18/114
f 129/18/112 110/18/114 108/18/110
f 133/18/115 118/18/113 131/18/113
f 118/18/113 133/18/115 120/18/116
f 98/15/99 134/24/117 109/20/118
f 134/24/117 98/15/99 100/17/99
f 109/20/118 126/23/105 106/19/105
f 126/23/105 109/20/118 134/24/117
f 135/25/119 115/22/120 116/21/119
f 115/22/120 135/25/119 136/26/120
f 136/26/120 113/21/121 115/22/120
f 113/21/121 136/26/120 137/25/121
f 113/21/122 99/14/98 97/16/100
f 99/14/100 113/21/121 137/25/121
f 119/15/108 138/14/123 117/16/123
f 138/14/123 119/15/108 128/17/108
f 140/18/124 122/18/125 139/18/125
f 122/18/125 140/18/124 124/18/124
f 140/18/124 123/19/126 124/18/124
f 123/19/126 140/18/124 141/23/126
f 142/18/127 112/18/128 111/18/127
f 112/18/128 142/18/127 143/18/128
f 114/18/129 104/18/103 103/18/101
f 104/18/101 114/18/129 144/18/129
f 141/23/126 121/20/109 123/19/126
f 121/20/109 141/23/126 127/24/107
f 112/18/128 144/18/129 114/18/129
f 144/18/129 112/18/128 143/18/128
f 138/14/123 116/21/119 117/16/123
f 116/21/119 138/14/123 135/25/119
f 107/18/111 125/18/106 130/18/111
f 125/18/106 107/18/111 105/18/106
f 139/18/125 120/18/116 133/18/115
f 120/18/116 139/18/125 122/18/125
f 110/18/114 142/18/127 111/18/127
f 142/18/127 110/18/114 132/18/114
f 147/27/104 146/28/104 145/29/104
f 146/28/104 147/27/104 148/30/104
f 146/28/104 148/30/104 149/31/104
f 149/31/104 148/30/104 150/32/104
f 150/32/104 148/30/104 151/33/104
f 150/32/104 151/33/104 140/29/104
f 151/33/104 141/34/104 140/29/104
f 150/32/104 140/29/104 139/35/104
f 141/34/104 151/33/104 152/36/104
f 141/34/104 152/36/104 127/37/104
f 127/37/104 152/36/104 128/38/104
f 150/32/104 139/35/104 153/39/104
f 153/39/104 139/35/104 133/40/104
f 153/39/104 133/40/104 131/41/104
f 128/38/104 152/36/104 154/42/104
f 128/38/104 154/42/104 138/43/104
f 138/43/104 154/42/104 155/44/104
f 155/44/104 154/42/104 156/45/104
f 155/44/104 156/45/104 157/46/104
f 153/39/104 131/41/104 158/47/104
f 158/47/104 131/41/104 102/48/104
f 158/47/104 102/48/104 104/49/104
f 157/46/104 156/45/104 159/42/104
f 157/46/104 159/42/104 160/44/104
f 160/44/104 159/42/104 99/43/104
f 158/47/104 104/49/104 161/18/104
f 161/18/104 104/49/104 162/50/104
f 161/18/104 162/50/104 143/49/104
f 161/18/104 143/49/104 163/47/104
f 163/47/104 143/49/104 142/48/104
f 99/43/104 159/42/104 164/36/104
f 99/43/104 164/36/104 100/38/104
f 100/38/104 164/36/104 134/37/104
f 163/47/104 142/48/104 165/39/104
f 165/39/104 142/48/104 132/41/104
f 165/39/104 132/41/104 129/40/104
f 134/37/104 164/36/104 166/33/104
f 165/39/104 129/40/104 167/32/104
f 134/37/104 166/33/104 126/34/104
f 167/32/104 129/40/104 130/35/104
f 126/34/104 166/33/104 125/29/104
f 167/32/104 130/35/104 125/29/104
f 167/32/104 125/29/104 166/33/104
f 167/32/104 166/33/104 168/30/104
f 167/32/104 168/30/104 169/31/104
f 169/31/104 168/30/104 170/27/104
f 169/31/104 170/27/104 171/28/104
f 171/28/104 170/27/104 172/29/104
f 35/51/104 40/52/104 36/51/104
f 40/52/104 35/51/104 58/51/104
f 40/52/104 58/51/104 42/53/104
f 42/53/104 58/51/104 66/51/104
f 42/53/104 66/51/104 60/54/104
f 60/54/104 66/51/104 172/51/104
f 172/51/104 66/51/104 171/51/104
f 170/55/104 60/54/104 172/51/104
f 171/51/104 66/51/104 50/51/104
f 171/51/104 50/51/104 169/51/104
f 169/51/104 50/51/104 173/51/104
f 60/54/104 170/55/104 64/56/104
f 64/56/104 170/55/104 168/57/104
f 64/56/104 168/57/104 174/58/104
f 173/51/104 50/51/104 32/51/104
f 173/51/104 32/51/104 175/51/104
f 175/51/104 32/51/104 163/51/104
f 163/51/104 32/51/104 31/51/104
f 163/51/104 31/51/104 161/51/104
f 64/56/104 174/58/104 56/59/104
f 56/59/104 174/58/104 176/60/104
f 56/59/104 176/60/104 177/61/104
f 161/51/104 31/51/104 59/51/104
f 161/51/104 59/51/104 158/51/104
f 158/51/104 59/51/104 178/51/104
f 56/59/104 177/61/104 34/62/104
f 34/62/104 177/61/104 156/63/104
f 34/62/104 156/63/104 179/61/104
f 34/62/104 179/61/104 33/59/104
f 33/59/104 179/61/104 180/60/104
f 178/51/104 59/51/104 67/51/104
f 178/51/104 67/51/104 181/51/104
f 181/51/104 67/51/104 149/51/104
f 33/59/104 180/60/104 51/56/104
f 51/56/104 180/60/104 182/58/104
f 51/56/104 182/58/104 148/57/104
f 149/51/104 67/51/104 69/51/104
f 51/56/104 148/57/104 52/54/104
f 149/51/104 69/51/104 146/51/104
f 52/54/104 148/57/104 147/55/104
f 146/51/104 69/51/104 145/51/104
f 52/54/104 147/55/104 145/51/104
f 52/54/104 145/51/104 69/51/104
f 52/54/104 69/51/104 2/51/104
f 52/54/104 2/51/104 24/53/104
f 24/53/104 2/51/104 4/51/104
f 24/53/104 4/51/104 23/52/104
f 23/52/104 4/51/104 45/51/104
