# Blender 5.0.0
# www.blender.org
mtllib llanta_sedan.mtl
o sedan.001
v 0.350000 0.559808 0.510000
v 0.500000 0.559808 0.510000
v 0.350000 0.512132 0.447868
v 0.500000 0.512132 0.447868
v 0.600000 0.300000 0.405000
v 0.500000 0.300000 0.360000
v 0.600000 0.365999 0.413689
v 0.500000 0.377646 0.370222
v 0.500000 0.087868 0.872132
v 0.600000 0.119688 0.840312
v 0.500000 0.150000 0.919808
v 0.600000 0.172500 0.880836
v 0.600000 0.427500 0.439163
v 0.500000 0.450000 0.400192
v 0.600000 0.480312 0.479688
v 0.350000 0.087868 0.872132
v 0.350000 0.150000 0.919808
v 0.350000 0.222354 0.949778
v 0.500000 0.222354 0.949778
v 0.350000 0.300000 0.960000
v 0.500000 0.300000 0.960000
v 0.600000 0.520837 0.532500
v 0.500000 0.040192 0.510000
v 0.500000 0.087868 0.447868
v 0.600000 0.079164 0.532500
v 0.600000 0.119688 0.479688
v 0.500000 0.040192 0.810000
v 0.600000 0.079164 0.787500
v 0.500000 0.559808 0.810000
v 0.600000 0.520837 0.787500
v 0.500000 0.589778 0.737646
v 0.600000 0.546311 0.725999
v 0.500000 0.512132 0.872132
v 0.600000 0.480312 0.840312
v 0.600000 0.234001 0.906311
v 0.350000 0.377646 0.949778
v 0.500000 0.377646 0.949778
v 0.350000 0.450000 0.919808
v 0.500000 0.450000 0.919808
v 0.500000 0.589778 0.582354
v 0.600000 0.546311 0.594001
v 0.350000 0.087868 0.447868
v 0.500000 0.150000 0.400192
v 0.350000 0.150000 0.400192
v 0.350000 0.512132 0.872132
v 0.350000 0.010222 0.737646
v 0.350000 0.000000 0.660000
v 0.500000 0.010222 0.737646
v 0.500000 0.000000 0.660000
v 0.350000 0.600000 0.660000
v 0.500000 0.600000 0.660000
v 0.350000 0.589778 0.582354
v 0.500000 0.222354 0.370222
v 0.350000 0.222354 0.370222
v 0.600000 0.300000 0.915000
v 0.350000 0.040192 0.510000
v 0.350000 0.010222 0.582354
v 0.500000 0.010222 0.582354
v 0.600000 0.427500 0.880836
v 0.350000 0.040192 0.810000
v 0.600000 0.555000 0.660000
v 0.600000 0.365999 0.906311
v 0.350000 0.450000 0.400192
v 0.350000 0.559808 0.810000
v 0.350000 0.300000 0.360000
v 0.350000 0.377646 0.370222
v 0.600000 0.053689 0.594001
v 0.600000 0.172500 0.439164
v 0.250000 0.546311 0.594001
v 0.250000 0.520837 0.532500
v 0.600000 0.053689 0.725999
v 0.600000 0.234001 0.413689
v 0.600000 0.045000 0.660000
v 0.350000 0.589778 0.737646
v 0.250000 0.480312 0.840312
v 0.250000 0.520837 0.787500
v 0.250000 0.079164 0.787500
v 0.250000 0.053689 0.725999
v 0.250000 0.546311 0.725999
v 0.250000 0.555000 0.660000
v 0.250000 0.365999 0.413689
v 0.250000 0.427500 0.439163
v 0.250000 0.300000 0.915000
v 0.250000 0.365999 0.906311
v 0.250000 0.172500 0.880836
v 0.250000 0.234001 0.906311
v 0.250000 0.427500 0.880836
v 0.250000 0.119688 0.840312
v 0.250000 0.045000 0.660000
v 0.250000 0.480312 0.479688
v 0.250000 0.119688 0.479688
v 0.250000 0.172500 0.439164
v 0.250000 0.234001 0.413689
v 0.250000 0.300000 0.405000
v 0.250000 0.053689 0.594001
v 0.250000 0.079164 0.532500
v 0.600000 0.300000 0.478632
v 0.600000 0.253059 0.484812
v 0.600000 0.346942 0.484812
v 0.600000 0.209316 0.502931
v 0.600000 0.171753 0.531753
v 0.600000 0.142931 0.569316
v 0.600000 0.124812 0.613058
v 0.600000 0.118632 0.660000
v 0.600000 0.390684 0.502931
v 0.600000 0.428247 0.531753
v 0.600000 0.457070 0.569316
v 0.600000 0.475188 0.613058
v 0.600000 0.124812 0.706941
v 0.600000 0.142931 0.750684
v 0.600000 0.171753 0.788247
v 0.600000 0.481368 0.660000
v 0.600000 0.475188 0.706941
v 0.600000 0.457070 0.750684
v 0.600000 0.428247 0.788247
v 0.600000 0.209316 0.817069
v 0.600000 0.253059 0.835188
v 0.600000 0.390684 0.817069
v 0.600000 0.346942 0.835188
v 0.600000 0.300000 0.841368
v 0.600000 0.300000 0.841368
v 0.600000 0.253059 0.835188
v 0.600000 0.346942 0.835188
v 0.600000 0.390684 0.817069
v 0.600000 0.209316 0.817069
v 0.600000 0.428247 0.788247
v 0.600000 0.171753 0.788247
v 0.600000 0.300000 0.780478
v 0.600000 0.331182 0.776373
v 0.600000 0.268818 0.776373
v 0.600000 0.457070 0.750684
v 0.600000 0.360239 0.764337
v 0.600000 0.385191 0.745191
v 0.600000 0.142931 0.750684
v 0.600000 0.239761 0.764337
v 0.600000 0.214809 0.745191
v 0.600000 0.475188 0.706941
v 0.600000 0.404337 0.720239
v 0.600000 0.416373 0.691182
v 0.600000 0.481368 0.660000
v 0.600000 0.420478 0.660000
v 0.600000 0.124812 0.706941
v 0.600000 0.195663 0.720239
v 0.600000 0.183627 0.691182
v 0.600000 0.475188 0.613058
v 0.600000 0.416373 0.628818
v 0.600000 0.404337 0.599761
v 0.600000 0.118632 0.660000
v 0.600000 0.179522 0.660000
v 0.600000 0.183627 0.628818
v 0.600000 0.124812 0.613058
v 0.600000 0.195663 0.599761
v 0.600000 0.457070 0.569316
v 0.600000 0.385191 0.574809
v 0.600000 0.360239 0.555663
v 0.600000 0.142931 0.569316
v 0.600000 0.214809 0.574809
v 0.600000 0.239761 0.555663
v 0.600000 0.428247 0.531753
v 0.600000 0.171753 0.531753
v 0.600000 0.331182 0.543627
v 0.600000 0.268818 0.543627
v 0.600000 0.300000 0.539522
v 0.600000 0.390684 0.502931
v 0.600000 0.209316 0.502931
v 0.600000 0.346942 0.484812
v 0.600000 0.253059 0.484812
v 0.600000 0.300000 0.478632
v 0.550000 0.387280 0.683386
v 0.550000 0.390359 0.660000
v 0.600000 0.416373 0.691182
v 0.600000 0.420478 0.660000
v 0.550000 0.212720 0.683386
v 0.550000 0.221747 0.705179
v 0.600000 0.183627 0.691182
v 0.600000 0.195663 0.720239
v 0.550000 0.236107 0.596107
v 0.550000 0.221747 0.614821
v 0.600000 0.214809 0.574809
v 0.600000 0.195663 0.599761
v 0.600000 0.268818 0.776373
v 0.550000 0.276614 0.747280
v 0.600000 0.300000 0.780478
v 0.550000 0.300000 0.750359
v 0.550000 0.209642 0.660000
v 0.600000 0.179522 0.660000
v 0.550000 0.323387 0.572720
v 0.600000 0.331182 0.543627
v 0.550000 0.345179 0.581747
v 0.600000 0.360239 0.555663
v 0.550000 0.323387 0.747280
v 0.600000 0.331182 0.776373
v 0.550000 0.236107 0.723893
v 0.600000 0.214809 0.745191
v 0.550000 0.300000 0.569641
v 0.600000 0.300000 0.539522
v 0.550000 0.212720 0.636613
v 0.600000 0.183627 0.628818
v 0.600000 0.239761 0.555663
v 0.600000 0.268818 0.543627
v 0.550000 0.254821 0.581747
v 0.550000 0.276614 0.572720
v 0.550000 0.363893 0.723893
v 0.550000 0.378253 0.705179
v 0.600000 0.385191 0.745191
v 0.600000 0.404337 0.720239
v 0.550000 0.363893 0.596107
v 0.600000 0.385191 0.574809
v 0.600000 0.239761 0.764337
v 0.550000 0.254821 0.738253
v 0.550000 0.378253 0.614821
v 0.550000 0.387280 0.636613
v 0.550000 0.345179 0.738253
v 0.600000 0.416373 0.628818
v 0.600000 0.404337 0.599761
v 0.600000 0.360239 0.764337
vn 1.0000 -0.0000 -0.0000
vn -0.2064 0.4892 0.8474
vn -0.4104 0.4560 0.7897
vn -0.2064 0.2532 0.9451
vn -0.4104 0.2360 0.8808
vn -0.2064 -0.8474 -0.4892
vn -0.2064 -0.9451 -0.2532
vn -0.4104 -0.7897 -0.4560
vn -0.4104 -0.8808 -0.2360
vn -1.0000 -0.0000 -0.0000
vn -0.4104 0.2360 -0.8808
vn -0.2064 0.2532 -0.9451
vn -0.4104 -0.0000 -0.9119
vn -0.2064 -0.0000 -0.9785
vn -0.2064 -0.6919 -0.6919
vn -0.4104 -0.6448 -0.6448
vn -0.4104 -0.2360 -0.8808
vn -0.2064 -0.2532 -0.9451
vn -0.4104 -0.4560 -0.7897
vn -0.2064 -0.4892 -0.8474
vn -0.2064 0.9451 -0.2532
vn -0.4104 0.8808 -0.2360
vn -0.2064 0.9785 -0.0000
vn -0.4104 0.9119 -0.0000
vn -0.2064 0.6919 -0.6919
vn -0.4104 0.6448 -0.6448
vn -0.2064 0.8474 -0.4892
vn -0.4104 0.7897 -0.4560
vn -0.2064 -0.9785 -0.0000
vn -0.4104 -0.9119 -0.0000
vn -0.2064 0.4892 -0.8474
vn -0.4104 0.4560 -0.7897
vn -0.4104 -0.4560 0.7897
vn -0.4104 -0.6448 0.6448
vn -0.2064 -0.4892 0.8474
vn -0.2064 -0.6919 0.6919
vn -0.4104 -0.0000 0.9119
vn -0.4104 -0.2360 0.8808
vn -0.2064 -0.0000 0.9785
vn -0.2064 -0.2532 0.9451
vn -0.2064 -0.9451 0.2532
vn -0.4104 -0.8808 0.2360
vn -0.2064 -0.8474 0.4892
vn -0.4104 -0.7897 0.4560
vn -0.2064 0.6919 0.6919
vn -0.4104 0.6448 0.6448
vn -0.2064 0.9451 0.2532
vn -0.4104 0.8808 0.2360
vn -0.2064 0.8474 0.4892
vn -0.4104 0.7897 0.4560
vn 0.2064 0.9785 -0.0000
vn 0.2064 0.9451 0.2532
vn 0.4104 -0.2360 -0.8808
vn 0.4104 -0.4560 -0.7897
vn 0.2064 -0.2532 -0.9451
vn 0.2064 -0.4892 -0.8474
vn 0.2064 -0.9451 0.2532
vn 0.2064 -0.8474 0.4892
vn 0.2064 0.8474 0.4892
vn 0.4104 -0.9119 -0.0000
vn 0.4104 -0.8808 0.2360
vn 0.2064 -0.9785 -0.0000
vn 0.4104 -0.8808 -0.2360
vn 0.2064 -0.9451 -0.2532
vn 0.4104 -0.0000 -0.9119
vn 0.2064 -0.0000 -0.9785
vn 0.2064 0.4892 -0.8474
vn 0.2064 0.2532 -0.9451
vn 0.4104 -0.7897 0.4560
vn 0.4104 -0.6448 -0.6448
vn 0.2064 -0.6919 -0.6919
vn 0.4104 -0.7897 -0.4560
vn 0.2064 -0.8474 -0.4892
vn 0.2064 0.6919 0.6919
vn 0.4104 0.2360 0.8808
vn 0.2064 0.2532 0.9451
vn 0.4104 -0.0000 0.9119
vn 0.2064 -0.0000 0.9785
vn 0.4104 0.4560 -0.7897
vn 0.4104 0.2360 -0.8808
vn 0.2064 0.6919 -0.6919
vn 0.4104 0.8808 -0.2360
vn 0.2064 0.9451 -0.2532
vn 0.4104 0.9119 -0.0000
vn 0.2064 0.4892 0.8474
vn 0.4104 0.4560 0.7897
vn 0.4104 0.8808 0.2360
vn 0.2064 0.8474 -0.4892
vn 0.2064 -0.6919 0.6919
vn 0.4104 0.6448 0.6448
vn 0.2064 -0.2532 0.9451
vn 0.2064 -0.4892 0.8474
vn 0.4104 -0.2360 0.8808
vn 0.4104 0.7897 -0.4560
vn 0.4104 -0.4560 0.7897
vn 0.4104 0.7897 0.4560
vn 0.4104 -0.6448 0.6448
vn 0.4104 0.6448 -0.6448
vn 0.5160 -0.4283 -0.7418
vn 0.5160 -0.2217 -0.8274
vn 0.5160 -0.0000 0.8566
vn 0.5160 0.2217 0.8274
vn 0.5160 0.4283 -0.7418
vn 0.5160 0.6057 -0.6057
vn 0.5160 -0.6057 -0.6057
vn 0.5160 0.4283 0.7418
vn 0.5160 0.6057 0.6057
vn 0.5160 -0.7418 0.4283
vn 0.5160 -0.8274 0.2217
vn 0.5160 -0.6057 0.6057
vn 0.5160 -0.8566 -0.0000
vn 0.5160 0.2217 -0.8274
vn 0.5160 -0.4283 0.7418
vn 0.5160 -0.8274 -0.2217
vn 0.5160 -0.7418 -0.4283
vn 0.5160 0.7418 0.4283
vn 0.5160 0.8274 0.2217
vn 0.5160 0.8566 -0.0000
vn 0.5160 -0.2217 0.8274
vn 0.5160 0.7418 -0.4283
vn 0.5160 -0.0000 -0.8566
vn 0.5160 0.8274 -0.2217
vt 0.593750 0.025000
vt 0.593750 0.068999
vt 0.593750 0.110000
vt 0.593750 0.145208
vt 0.593750 0.056294
vt 0.593750 0.085456
vt 0.593750 0.110498
vt 0.593750 0.172224
vt 0.593750 0.129713
vt 0.593750 0.189207
vt 0.593750 0.141792
vt 0.593750 0.195000
vt 0.593750 0.145912
vt 0.593750 0.125000
vt 0.593750 0.076764
vt 0.593750 0.218185
vt 0.593750 0.225000
vt 0.593750 0.166421
vt 0.593750 0.198205
vt 0.968750 0.125000
vt 0.968750 0.150882
vt 0.968750 0.099118
vt 0.968750 0.075000
vt 0.968750 0.175000
vt 0.968750 0.054289
vt 0.968750 0.195711
vt 0.968750 0.107807
vt 0.968750 0.142193
vt 0.968750 0.091786
vt 0.968750 0.158214
vt 0.968750 0.038397
vt 0.968750 0.211602
vt 0.968750 0.078029
vt 0.968750 0.067472
vt 0.968750 0.028407
vt 0.968750 0.171971
vt 0.968750 0.182528
vt 0.968750 0.221593
vt 0.968750 0.060836
vt 0.968750 0.025000
vt 0.968750 0.058573
vt 0.968750 0.189164
vt 0.968750 0.191427
vt 0.968750 0.225000
vt 0.968750 0.100000
vt 0.968750 0.087941
vt 0.968750 0.093750
vt 0.968750 0.084706
vt 0.968750 0.065294
vt 0.968750 0.062059
vt 0.968750 0.056250
vt 0.968750 0.050000
vt 0.968750 0.048483
vt 0.968750 0.039645
vt 0.968750 0.110355
vt 0.968750 0.101517
vt 0.968750 0.118301
vt 0.968750 0.123296
vt 0.968750 0.107476
vt 0.968750 0.111222
vt 0.968750 0.112500
vt 0.968750 0.042524
vt 0.968750 0.038778
vt 0.968750 0.037500
vt 0.968750 0.031699
vt 0.968750 0.026704
s 1
usemtl colormap.011
f 55/1/1 35/1/1 62/2/1
f 62/2/1 35/1/1 59/3/1
f 35/1/1 12/1/1 59/3/1
f 12/1/1 120/1/1 59/3/1
f 59/3/1 120/1/1 34/4/1
f 12/1/1 10/1/1 120/1/1
f 120/1/1 119/5/1 34/4/1
f 120/1/1 10/1/1 117/1/1
f 119/5/1 118/6/1 34/4/1
f 118/6/1 115/7/1 34/4/1
f 117/1/1 10/1/1 116/1/1
f 116/1/1 10/1/1 111/1/1
f 34/4/1 115/7/1 30/8/1
f 10/1/1 28/1/1 111/1/1
f 115/7/1 114/9/1 30/8/1
f 30/8/1 114/9/1 32/10/1
f 114/9/1 113/11/1 32/10/1
f 32/10/1 113/11/1 61/12/1
f 113/11/1 112/13/1 61/12/1
f 112/13/1 108/11/1 61/12/1
f 61/12/1 108/11/1 41/10/1
f 111/1/1 28/1/1 110/1/1
f 28/1/1 71/1/1 110/1/1
f 110/1/1 71/1/1 109/1/1
f 109/1/1 71/1/1 104/1/1
f 71/1/1 73/1/1 104/1/1
f 108/11/1 107/9/1 41/10/1
f 41/10/1 107/9/1 22/8/1
f 107/9/1 106/7/1 22/8/1
f 106/7/1 105/6/1 22/8/1
f 105/6/1 99/5/1 22/8/1
f 104/1/1 73/1/1 103/1/1
f 73/1/1 67/1/1 103/1/1
f 103/1/1 67/1/1 102/1/1
f 67/1/1 25/1/1 102/1/1
f 102/1/1 25/1/1 101/1/1
f 101/1/1 25/1/1 100/1/1
f 100/1/1 25/1/1 98/1/1
f 22/8/1 99/5/1 15/4/1
f 25/1/1 26/1/1 98/1/1
f 99/5/1 97/1/1 15/4/1
f 98/1/1 26/1/1 97/1/1
f 13/3/1 15/4/1 97/1/1
f 97/1/1 26/1/1 13/3/1
f 26/1/1 68/1/1 13/3/1
f 13/3/1 68/1/1 7/2/1
f 68/1/1 72/1/1 7/2/1
f 5/1/1 7/2/1 72/1/1
f 38/14/2 87/3/3 36/15/4
f 84/2/5 36/15/4 87/3/3
f 56/1/6 57/1/7 96/1/8
f 95/1/9 96/1/8 57/1/7
f 83/1/10 84/2/10 86/1/10
f 86/1/10 84/2/10 85/1/10
f 84/2/10 87/3/10 85/1/10
f 85/1/10 87/3/10 88/1/10
f 87/3/10 75/4/10 88/1/10
f 88/1/10 75/4/10 77/1/10
f 75/4/10 76/8/10 77/1/10
f 77/1/10 76/8/10 78/1/10
f 76/8/10 79/10/10 78/1/10
f 78/1/10 79/10/10 89/1/10
f 79/10/10 80/12/10 89/1/10
f 89/1/10 80/12/10 95/1/10
f 80/12/10 69/10/10 95/1/10
f 95/1/10 69/10/10 96/1/10
f 69/10/10 70/8/10 96/1/10
f 96/1/10 70/8/10 91/1/10
f 70/8/10 90/4/10 91/1/10
f 91/1/10 90/4/10 92/1/10
f 90/4/10 82/3/10 92/1/10
f 82/3/10 81/2/10 92/1/10
f 92/1/10 81/2/10 93/1/10
f 94/1/10 93/1/10 81/2/10
f 81/2/11 66/15/12 94/1/13
f 65/1/14 94/1/13 66/15/12
f 42/1/15 56/1/6 91/1/16
f 96/1/8 91/1/16 56/1/6
f 93/1/17 54/1/18 92/1/19
f 44/1/20 92/1/19 54/1/18
f 52/16/21 69/10/22 50/17/23
f 80/12/24 50/17/23 69/10/22
f 3/18/25 90/4/26 1/19/27
f 70/8/28 1/19/27 90/4/26
f 57/1/7 47/1/29 95/1/9
f 89/1/30 95/1/9 47/1/29
f 94/1/13 65/1/14 93/1/17
f 54/1/18 93/1/17 65/1/14
f 92/1/19 44/1/20 91/1/16
f 42/1/15 91/1/16 44/1/20
f 3/18/25 63/14/31 90/4/26
f 82/3/32 90/4/26 63/14/31
f 85/1/33 88/1/34 17/1/35
f 16/1/36 17/1/35 88/1/34
f 83/1/37 86/1/38 20/1/39
f 18/1/40 20/1/39 86/1/38
f 47/1/29 46/1/41 89/1/30
f 78/1/42 89/1/30 46/1/41
f 60/1/43 16/1/36 77/1/44
f 88/1/34 77/1/44 16/1/36
f 45/18/45 75/4/46 38/14/2
f 87/3/3 38/14/2 75/4/46
f 86/1/38 85/1/33 18/1/40
f 17/1/35 18/1/40 85/1/33
f 36/15/4 84/2/5 20/1/39
f 83/1/37 20/1/39 84/2/5
f 63/14/31 66/15/12 82/3/32
f 81/2/11 82/3/32 66/15/12
f 74/16/47 79/10/48 64/19/49
f 76/8/50 64/19/49 79/10/48
f 50/17/23 80/12/24 74/16/47
f 79/10/48 74/16/47 80/12/24
f 46/1/41 60/1/43 78/1/42
f 77/1/44 78/1/42 60/1/43
f 64/19/49 76/8/50 45/18/45
f 75/4/46 45/18/45 76/8/50
f 51/17/51 50/17/23 31/16/52
f 74/16/47 31/16/52 50/17/23
f 72/1/53 68/1/54 53/1/55
f 43/1/56 53/1/55 68/1/54
f 48/1/57 27/1/58 46/1/41
f 60/1/43 46/1/41 27/1/58
f 31/16/52 74/16/47 29/19/59
f 64/19/49 29/19/59 74/16/47
f 73/1/60 71/1/61 49/1/62
f 48/1/57 49/1/62 71/1/61
f 67/1/63 73/1/60 58/1/64
f 49/1/62 58/1/64 73/1/60
f 5/1/65 72/1/53 6/1/66
f 53/1/55 6/1/66 72/1/53
f 65/1/14 6/1/66 54/1/18
f 53/1/55 54/1/18 6/1/66
f 63/14/31 14/14/67 66/15/12
f 8/15/68 66/15/12 14/14/67
f 71/1/61 28/1/69 48/1/57
f 27/1/58 48/1/57 28/1/69
f 1/19/27 70/8/28 52/16/21
f 69/10/22 52/16/21 70/8/28
f 68/1/54 26/1/70 43/1/56
f 24/1/71 43/1/56 26/1/70
f 25/1/72 67/1/63 23/1/73
f 58/1/64 23/1/73 67/1/63
f 66/15/12 8/15/68 65/1/14
f 6/1/66 65/1/14 8/15/68
f 29/19/59 64/19/49 33/18/74
f 45/18/45 33/18/74 64/19/49
f 62/2/75 37/15/76 55/1/77
f 21/1/78 55/1/77 37/15/76
f 14/14/67 13/3/79 8/15/68
f 7/2/80 8/15/68 13/3/79
f 37/15/76 36/15/4 21/1/78
f 20/1/39 21/1/78 36/15/4
f 3/18/25 4/18/81 63/14/31
f 14/14/67 63/14/31 4/18/81
f 41/10/82 40/16/83 61/12/84
f 51/17/51 61/12/84 40/16/83
f 39/14/85 37/15/76 59/3/86
f 62/2/75 59/3/86 37/15/76
f 61/12/84 51/17/51 32/10/87
f 31/16/52 32/10/87 51/17/51
f 2/19/88 1/19/27 40/16/83
f 52/16/21 40/16/83 1/19/27
f 27/1/58 9/1/89 60/1/43
f 16/1/36 60/1/43 9/1/89
f 33/18/74 39/14/85 34/4/90
f 59/3/86 34/4/90 39/14/85
f 58/1/64 49/1/62 57/1/7
f 47/1/29 57/1/7 49/1/62
f 19/1/91 18/1/40 11/1/92
f 17/1/35 11/1/92 18/1/40
f 23/1/73 58/1/64 56/1/6
f 57/1/7 56/1/6 58/1/64
f 24/1/71 23/1/73 42/1/15
f 56/1/6 42/1/15 23/1/73
f 55/1/77 21/1/78 35/1/93
f 19/1/91 35/1/93 21/1/78
f 54/1/18 53/1/55 44/1/20
f 43/1/56 44/1/20 53/1/55
f 40/16/83 52/16/21 51/17/51
f 50/17/23 51/17/51 52/16/21
f 49/1/62 48/1/57 47/1/29
f 46/1/41 47/1/29 48/1/57
f 33/18/74 45/18/45 39/14/85
f 38/14/2 39/14/85 45/18/45
f 44/1/20 43/1/56 42/1/15
f 24/1/71 42/1/15 43/1/56
f 22/8/94 2/19/88 41/10/82
f 40/16/83 41/10/82 2/19/88
f 39/14/85 38/14/2 37/15/76
f 36/15/4 37/15/76 38/14/2
f 35/1/93 19/1/91 12/1/95
f 11/1/92 12/1/95 19/1/91
f 30/8/96 29/19/59 34/4/90
f 33/18/74 34/4/90 29/19/59
f 32/10/87 31/16/52 30/8/96
f 29/19/59 30/8/96 31/16/52
f 28/1/69 10/1/97 27/1/58
f 9/1/89 27/1/58 10/1/97
f 26/1/70 25/1/72 24/1/71
f 23/1/73 24/1/71 25/1/72
f 15/4/98 4/18/81 22/8/94
f 2/19/88 22/8/94 4/18/81
f 21/1/78 20/1/39 19/1/91
f 18/1/40 19/1/91 20/1/39
f 11/1/92 17/1/35 9/1/89
f 16/1/36 9/1/89 17/1/35
f 4/18/81 15/4/98 14/14/67
f 13/3/79 14/14/67 15/4/98
f 12/1/95 11/1/92 10/1/97
f 9/1/89 10/1/97 11/1/92
f 8/15/68 7/2/80 6/1/66
f 5/1/65 6/1/66 7/2/80
f 4/18/81 3/18/25 2/19/88
f 1/19/27 2/19/88 3/18/25
f 168/20/1 166/21/1 167/22/1
f 167/22/1 166/21/1 165/23/1
f 166/21/1 164/24/1 165/23/1
f 165/23/1 164/24/1 160/25/1
f 164/24/1 159/26/1 160/25/1
f 159/26/1 163/20/1 160/25/1
f 163/20/1 162/27/1 160/25/1
f 163/20/1 159/26/1 161/28/1
f 162/27/1 158/29/1 160/25/1
f 161/28/1 159/26/1 155/30/1
f 160/25/1 158/29/1 156/31/1
f 159/26/1 153/32/1 155/30/1
f 158/29/1 157/33/1 156/31/1
f 157/33/1 152/34/1 156/31/1
f 156/31/1 152/34/1 151/35/1
f 155/30/1 153/32/1 154/36/1
f 154/36/1 153/32/1 147/37/1
f 153/32/1 145/38/1 147/37/1
f 152/34/1 150/39/1 151/35/1
f 151/35/1 150/39/1 148/40/1
f 150/39/1 149/41/1 148/40/1
f 149/41/1 144/39/1 148/40/1
f 148/40/1 144/39/1 142/35/1
f 147/37/1 145/38/1 146/42/1
f 146/42/1 145/38/1 141/43/1
f 145/38/1 140/44/1 141/43/1
f 144/39/1 143/34/1 142/35/1
f 143/34/1 136/33/1 142/35/1
f 142/35/1 136/33/1 134/31/1
f 141/43/1 140/44/1 139/42/1
f 140/44/1 137/38/1 139/42/1
f 139/42/1 137/38/1 138/37/1
f 138/37/1 137/38/1 133/36/1
f 137/38/1 131/32/1 133/36/1
f 136/33/1 135/29/1 134/31/1
f 135/29/1 130/27/1 134/31/1
f 134/31/1 130/27/1 127/25/1
f 133/36/1 131/32/1 132/30/1
f 132/30/1 131/32/1 129/28/1
f 131/32/1 126/26/1 129/28/1
f 130/27/1 128/20/1 127/25/1
f 128/20/1 129/28/1 126/26/1
f 128/20/1 126/26/1 127/25/1
f 127/25/1 126/26/1 125/23/1
f 126/26/1 124/24/1 125/23/1
f 125/23/1 124/24/1 122/22/1
f 124/24/1 123/21/1 122/22/1
f 121/20/1 122/22/1 123/21/1
f 216/45/99 192/46/100 213/47/99
f 191/48/100 213/47/99 192/46/100
f 195/23/101 202/49/102 196/23/101
f 200/50/102 196/23/101 202/49/102
f 210/51/103 209/52/103 193/53/104
f 194/54/104 193/53/104 209/52/103
f 205/55/105 216/45/99 203/56/105
f 213/47/99 203/56/105 216/45/99
f 201/51/106 177/53/107 199/52/106
f 179/54/107 199/52/106 177/53/107
f 215/57/108 214/58/109 211/59/108
f 212/60/109 211/59/108 214/58/109
f 208/55/110 215/57/108 207/56/110
f 211/59/108 207/56/110 215/57/108
f 214/58/109 172/20/111 212/60/109
f 170/61/111 212/60/109 172/20/111
f 184/23/1 182/49/1 191/48/1
f 191/48/1 182/49/1 213/47/1
f 182/49/1 210/51/1 213/47/1
f 213/47/1 210/51/1 203/56/1
f 210/51/1 193/53/1 203/56/1
f 203/56/1 193/53/1 204/59/1
f 193/53/1 174/62/1 204/59/1
f 204/59/1 174/62/1 169/60/1
f 174/62/1 173/63/1 169/60/1
f 169/60/1 173/63/1 170/61/1
f 173/63/1 185/64/1 170/61/1
f 170/61/1 185/64/1 212/60/1
f 185/64/1 197/63/1 212/60/1
f 212/60/1 197/63/1 211/59/1
f 197/63/1 178/62/1 211/59/1
f 211/59/1 178/62/1 207/56/1
f 178/62/1 177/53/1 207/56/1
f 207/56/1 177/53/1 189/47/1
f 177/53/1 201/51/1 189/47/1
f 189/47/1 201/51/1 187/48/1
f 201/51/1 202/49/1 187/48/1
f 195/23/1 187/48/1 202/49/1
f 182/49/112 181/50/112 210/51/103
f 209/52/103 210/51/103 181/50/112
f 208/55/110 207/56/110 190/45/113
f 189/47/113 190/45/113 207/56/110
f 171/58/114 206/57/115 169/60/114
f 204/59/115 169/60/114 206/57/115
f 180/65/116 178/62/116 198/66/117
f 197/63/117 198/66/117 178/62/116
f 206/57/115 205/55/105 204/59/115
f 203/56/105 204/59/115 205/55/105
f 202/49/102 201/51/106 200/50/102
f 199/52/106 200/50/102 201/51/106
f 186/40/118 198/66/117 185/64/118
f 197/63/117 185/64/118 198/66/117
f 188/46/119 187/48/119 196/23/101
f 195/23/101 196/23/101 187/48/119
f 194/54/104 176/65/120 193/53/104
f 174/62/120 193/53/104 176/65/120
f 192/46/100 183/23/121 191/48/100
f 184/23/121 191/48/100 183/23/121
f 190/45/113 189/47/113 188/46/119
f 187/48/119 188/46/119 189/47/113
f 186/40/118 185/64/118 175/66/122
f 173/63/122 175/66/122 185/64/118
f 184/23/121 183/23/121 182/49/112
f 181/50/112 182/49/112 183/23/121
f 180/65/116 179/54/107 178/62/116
f 177/53/107 178/62/116 179/54/107
f 176/65/120 175/66/122 174/62/120
f 173/63/122 174/62/120 175/66/122
f 172/20/111 171/58/114 170/61/111
f 169/60/114 170/61/111 171/58/114
