# Blender 5.0.0
# www.blender.org
mtllib llanta_hatchback_sport.mtl
o hatchback-sports.001
v -0.350000 0.559808 -0.960000
v -0.500000 0.559808 -0.960000
v -0.350000 0.512132 -1.022132
v -0.500000 0.512132 -1.022132
v -0.600000 0.300000 -1.065000
v -0.500000 0.300000 -1.110000
v -0.600000 0.365999 -1.056311
v -0.500000 0.377646 -1.099778
v -0.500000 0.087868 -0.597868
v -0.600000 0.119688 -0.629688
v -0.500000 0.150000 -0.550192
v -0.600000 0.172500 -0.589163
v -0.600000 0.427500 -1.030836
v -0.500000 0.450000 -1.069808
v -0.600000 0.480312 -0.990312
v -0.350000 0.087868 -0.597868
v -0.350000 0.150000 -0.550192
v -0.350000 0.222354 -0.520222
v -0.500000 0.222354 -0.520222
v -0.350000 0.300000 -0.510000
v -0.500000 0.300000 -0.510000
v -0.600000 0.520836 -0.937500
v -0.500000 0.040192 -0.960000
v -0.500000 0.087868 -1.022132
v -0.600000 0.079163 -0.937500
v -0.600000 0.119688 -0.990312
v -0.500000 0.040192 -0.660000
v -0.600000 0.079163 -0.682500
v -0.500000 0.559808 -0.660000
v -0.600000 0.520836 -0.682500
v -0.500000 0.589778 -0.732354
v -0.600000 0.546311 -0.744001
v -0.500000 0.512132 -0.597868
v -0.600000 0.480312 -0.629688
v -0.600000 0.234001 -0.563689
v -0.350000 0.377646 -0.520222
v -0.500000 0.377646 -0.520222
v -0.350000 0.450000 -0.550192
v -0.500000 0.450000 -0.550192
v -0.500000 0.589778 -0.887646
v -0.600000 0.546311 -0.875999
v -0.350000 0.087868 -1.022132
v -0.500000 0.150000 -1.069808
v -0.350000 0.150000 -1.069808
v -0.350000 0.512132 -0.597868
v -0.350000 0.010222 -0.732354
v -0.350000 -0.000000 -0.810000
v -0.500000 0.010222 -0.732354
v -0.500000 -0.000000 -0.810000
v -0.350000 0.600000 -0.810000
v -0.500000 0.600000 -0.810000
v -0.350000 0.589778 -0.887646
v -0.500000 0.222354 -1.099778
v -0.350000 0.222354 -1.099778
v -0.600000 0.300000 -0.555000
v -0.350000 0.040192 -0.960000
v -0.350000 0.010222 -0.887646
v -0.500000 0.010222 -0.887646
v -0.600000 0.427500 -0.589164
v -0.350000 0.040192 -0.660000
v -0.600000 0.555000 -0.810000
v -0.600000 0.365999 -0.563689
v -0.350000 0.450000 -1.069808
v -0.350000 0.559808 -0.660000
v -0.350000 0.300000 -1.110000
v -0.350000 0.377646 -1.099778
v -0.600000 0.053689 -0.875999
v -0.600000 0.172500 -1.030836
v -0.250000 0.546311 -0.875999
v -0.250000 0.520836 -0.937500
v -0.600000 0.053689 -0.744001
v -0.600000 0.234001 -1.056311
v -0.600000 0.045000 -0.810000
v -0.350000 0.589778 -0.732354
v -0.250000 0.480312 -0.629688
v -0.250000 0.520836 -0.682500
v -0.250000 0.079163 -0.682500
v -0.250000 0.053689 -0.744001
v -0.250000 0.546311 -0.744001
v -0.250000 0.555000 -0.810000
v -0.250000 0.365999 -1.056311
v -0.250000 0.427500 -1.030836
v -0.250000 0.300000 -0.555000
v -0.250000 0.365999 -0.563689
v -0.250000 0.172500 -0.589163
v -0.250000 0.234001 -0.563689
v -0.250000 0.427500 -0.589164
v -0.250000 0.119688 -0.629688
v -0.250000 0.045000 -0.810000
v -0.250000 0.480312 -0.990312
v -0.250000 0.119688 -0.990312
v -0.250000 0.172500 -1.030836
v -0.250000 0.234001 -1.056311
v -0.250000 0.300000 -1.065000
v -0.250000 0.053689 -0.875999
v -0.250000 0.079163 -0.937500
v -0.600000 0.300000 -0.991368
v -0.600000 0.253058 -0.985188
v -0.600000 0.346942 -0.985188
v -0.600000 0.209316 -0.967069
v -0.600000 0.171753 -0.938247
v -0.600000 0.142930 -0.900684
v -0.600000 0.124812 -0.856942
v -0.600000 0.118632 -0.810000
v -0.600000 0.390684 -0.967069
v -0.600000 0.428247 -0.938247
v -0.600000 0.457069 -0.900684
v -0.600000 0.475188 -0.856942
v -0.600000 0.124812 -0.763058
v -0.600000 0.142930 -0.719316
v -0.600000 0.171753 -0.681753
v -0.600000 0.481368 -0.810000
v -0.600000 0.475188 -0.763058
v -0.600000 0.457069 -0.719316
v -0.600000 0.428247 -0.681753
v -0.600000 0.209316 -0.652930
v -0.600000 0.253058 -0.634812
v -0.600000 0.390684 -0.652930
v -0.600000 0.346942 -0.634812
v -0.600000 0.300000 -0.628632
v -0.600000 0.300000 -0.628632
v -0.600000 0.253058 -0.634812
v -0.600000 0.346942 -0.634812
v -0.600000 0.390684 -0.652930
v -0.600000 0.209316 -0.652930
v -0.600000 0.428247 -0.681753
v -0.600000 0.171753 -0.681753
v -0.600000 0.300000 -0.689522
v -0.600000 0.331182 -0.693627
v -0.600000 0.268818 -0.693627
v -0.600000 0.457069 -0.719316
v -0.600000 0.360239 -0.705663
v -0.600000 0.385191 -0.724809
v -0.600000 0.142930 -0.719316
v -0.600000 0.239761 -0.705663
v -0.600000 0.214809 -0.724809
v -0.600000 0.475188 -0.763058
v -0.600000 0.404337 -0.749761
v -0.600000 0.416373 -0.778818
v -0.600000 0.481368 -0.810000
v -0.600000 0.420478 -0.810000
v -0.600000 0.124812 -0.763058
v -0.600000 0.195663 -0.749761
v -0.600000 0.183627 -0.778818
v -0.600000 0.475188 -0.856942
v -0.600000 0.416373 -0.841182
v -0.600000 0.404337 -0.870239
v -0.600000 0.118632 -0.810000
v -0.600000 0.179522 -0.810000
v -0.600000 0.183627 -0.841182
v -0.600000 0.124812 -0.856942
v -0.600000 0.195663 -0.870239
v -0.600000 0.457069 -0.900684
v -0.600000 0.385191 -0.895191
v -0.600000 0.360239 -0.914337
v -0.600000 0.142930 -0.900684
v -0.600000 0.214809 -0.895191
v -0.600000 0.239761 -0.914337
v -0.600000 0.428247 -0.938247
v -0.600000 0.171753 -0.938247
v -0.600000 0.331182 -0.926373
v -0.600000 0.268818 -0.926373
v -0.600000 0.300000 -0.930478
v -0.600000 0.390684 -0.967069
v -0.600000 0.209316 -0.967069
v -0.600000 0.346942 -0.985188
v -0.600000 0.253058 -0.985188
v -0.600000 0.300000 -0.991368
v -0.550000 0.387280 -0.786614
v -0.550000 0.390358 -0.810000
v -0.600000 0.416373 -0.778818
v -0.600000 0.420478 -0.810000
v -0.550000 0.212720 -0.786614
v -0.550000 0.221747 -0.764821
v -0.600000 0.183627 -0.778818
v -0.600000 0.195663 -0.749761
v -0.550000 0.236107 -0.873893
v -0.550000 0.221747 -0.855179
v -0.600000 0.214809 -0.895191
v -0.600000 0.195663 -0.870239
v -0.600000 0.268818 -0.693627
v -0.550000 0.276613 -0.722720
v -0.600000 0.300000 -0.689522
v -0.550000 0.300000 -0.719641
v -0.550000 0.209641 -0.810000
v -0.600000 0.179522 -0.810000
v -0.550000 0.323386 -0.897280
v -0.600000 0.331182 -0.926373
v -0.550000 0.345179 -0.888253
v -0.600000 0.360239 -0.914337
v -0.550000 0.323386 -0.722720
v -0.600000 0.331182 -0.693627
v -0.550000 0.236107 -0.746107
v -0.600000 0.214809 -0.724809
v -0.550000 0.300000 -0.900358
v -0.600000 0.300000 -0.930478
v -0.550000 0.212720 -0.833386
v -0.600000 0.183627 -0.841182
v -0.600000 0.239761 -0.914337
v -0.600000 0.268818 -0.926373
v -0.550000 0.254821 -0.888253
v -0.550000 0.276613 -0.897280
v -0.550000 0.363893 -0.746107
v -0.550000 0.378253 -0.764821
v -0.600000 0.385191 -0.724809
v -0.600000 0.404337 -0.749761
v -0.550000 0.363893 -0.873893
v -0.600000 0.385191 -0.895191
v -0.600000 0.239761 -0.705663
v -0.550000 0.254821 -0.731747
v -0.550000 0.378253 -0.855179
v -0.550000 0.387280 -0.833386
v -0.550000 0.345179 -0.731747
v -0.600000 0.416373 -0.841182
v -0.600000 0.404337 -0.870239
v -0.600000 0.360239 -0.705663
vn 0.2064 0.6919 -0.6919
vn -0.2064 0.8474 -0.4892
vn 0.2064 0.8474 -0.4892
vn -0.2064 0.6919 -0.6919
vn -0.4104 0.2360 -0.8808
vn -0.2064 -0.0000 -0.9785
vn -0.4104 -0.0000 -0.9119
vn -0.2064 0.2532 -0.9451
vn -0.2064 -0.4892 0.8474
vn -0.4104 -0.6448 0.6448
vn -0.2064 -0.6919 0.6919
vn -0.4104 -0.4560 0.7897
vn -0.4104 0.6448 -0.6448
vn -0.2064 0.4892 -0.8474
vn -0.4104 0.4560 -0.7897
vn 0.2064 -0.4892 0.8474
vn 0.2064 -0.6919 0.6919
vn 0.2064 -0.0000 0.9785
vn -0.2064 -0.2532 0.9451
vn 0.2064 -0.2532 0.9451
vn -0.2064 -0.0000 0.9785
vn -0.4104 0.7897 -0.4560
vn -0.4104 -0.7897 -0.4560
vn -0.2064 -0.6919 -0.6919
vn -0.2064 -0.8474 -0.4892
vn -0.4104 -0.6448 -0.6448
vn -0.2064 -0.8474 0.4892
vn -0.4104 -0.7897 0.4560
vn -0.2064 0.9451 0.2532
vn -0.4104 0.7897 0.4560
vn -0.2064 0.8474 0.4892
vn -0.4104 0.8808 0.2360
vn -0.4104 0.6448 0.6448
vn -0.2064 0.6919 0.6919
vn -0.4104 -0.2360 0.8808
vn 0.2064 0.4892 0.8474
vn -0.2064 0.2532 0.9451
vn 0.2064 0.2532 0.9451
vn -0.2064 0.4892 0.8474
vn -0.4104 0.8808 -0.2360
vn -0.2064 0.9451 -0.2532
vn -0.2064 -0.4892 -0.8474
vn 0.2064 -0.6919 -0.6919
vn 0.2064 -0.4892 -0.8474
vn 0.2064 0.6919 0.6919
vn -0.2064 -0.9451 0.2532
vn 0.2064 -0.9785 -0.0000
vn 0.2064 -0.9451 0.2532
vn -0.2064 -0.9785 -0.0000
vn 0.2064 0.9451 -0.2532
vn -0.2064 0.9785 -0.0000
vn 0.2064 0.9785 -0.0000
vn -0.2064 -0.2532 -0.9451
vn 0.2064 -0.2532 -0.9451
vn -0.4104 -0.0000 0.9119
vn 0.2064 -0.8474 -0.4892
vn -0.2064 -0.9451 -0.2532
vn 0.2064 -0.9451 -0.2532
vn -0.4104 0.4560 0.7897
vn 0.2064 -0.8474 0.4892
vn -0.4104 0.9119 -0.0000
vn -0.4104 0.2360 0.8808
vn 0.2064 0.4892 -0.8474
vn 0.2064 0.8474 0.4892
vn 0.2064 -0.0000 -0.9785
vn 0.2064 0.2532 -0.9451
vn -0.4104 -0.8808 -0.2360
vn -0.4104 -0.4560 -0.7897
vn 0.4104 0.7897 -0.4560
vn 0.4104 0.8808 -0.2360
vn -0.4104 -0.8808 0.2360
vn -0.4104 -0.2360 -0.8808
vn -0.4104 -0.9119 -0.0000
vn 0.2064 0.9451 0.2532
vn 0.4104 0.7897 0.4560
vn 0.4104 0.6448 0.6448
vn 0.4104 -0.8808 0.2360
vn 0.4104 -0.7897 0.4560
vn 0.4104 0.9119 -0.0000
vn 0.4104 0.8808 0.2360
vn 0.4104 0.4560 -0.7897
vn 0.4104 0.2360 -0.8808
vn 0.4104 0.2360 0.8808
vn 0.4104 -0.0000 0.9119
vn 0.4104 -0.4560 0.7897
vn 0.4104 -0.2360 0.8808
vn 0.4104 0.4560 0.7897
vn 0.4104 -0.6448 0.6448
vn 0.4104 -0.9119 -0.0000
vn 0.4104 0.6448 -0.6448
vn 0.4104 -0.6448 -0.6448
vn 0.4104 -0.4560 -0.7897
vn 0.4104 -0.2360 -0.8808
vn 0.4104 -0.0000 -0.9119
vn 0.4104 -0.8808 -0.2360
vn 0.4104 -0.7897 -0.4560
vn 1.0000 -0.0000 -0.0000
vn -1.0000 -0.0000 -0.0000
vn -0.5160 -0.8274 -0.2217
vn -0.5160 -0.8566 -0.0000
vn -0.5160 0.8274 -0.2217
vn -0.5160 0.7418 -0.4283
vn -0.5160 0.6057 0.6057
vn -0.5160 0.7418 0.4283
vn -0.5160 -0.0000 -0.8566
vn -0.5160 0.2217 -0.8274
vn -0.5160 0.8566 -0.0000
vn -0.5160 -0.4283 0.7418
vn -0.5160 -0.2217 0.8274
vn -0.5160 -0.2217 -0.8274
vn -0.5160 0.6057 -0.6057
vn -0.5160 -0.0000 0.8566
vn -0.5160 0.8274 0.2217
vn -0.5160 0.4283 0.7418
vn -0.5160 0.2217 0.8274
vn -0.5160 -0.6057 -0.6057
vn -0.5160 -0.7418 -0.4283
vn -0.5160 -0.6057 0.6057
vn -0.5160 0.4283 -0.7418
vn -0.5160 -0.8274 0.2217
vn -0.5160 -0.7418 0.4283
vn -0.5160 -0.4283 -0.7418
vt 0.593750 0.166421
vt 0.593750 0.198205
vt 0.593750 0.068999
vt 0.593750 0.025000
vt 0.593750 0.076764
vt 0.593750 0.145208
vt 0.593750 0.125000
vt 0.593750 0.110000
vt 0.593750 0.172224
vt 0.593750 0.218185
vt 0.593750 0.189207
vt 0.593750 0.225000
vt 0.593750 0.195000
vt 0.593750 0.056294
vt 0.593750 0.085456
vt 0.593750 0.110498
vt 0.593750 0.129713
vt 0.593750 0.141792
vt 0.593750 0.145912
vt 0.968750 0.150882
vt 0.968750 0.099118
vt 0.968750 0.125000
vt 0.968750 0.175000
vt 0.968750 0.075000
vt 0.968750 0.195711
vt 0.968750 0.054289
vt 0.968750 0.142193
vt 0.968750 0.107807
vt 0.968750 0.211602
vt 0.968750 0.158214
vt 0.968750 0.171971
vt 0.968750 0.038397
vt 0.968750 0.091786
vt 0.968750 0.078029
vt 0.968750 0.221593
vt 0.968750 0.182528
vt 0.968750 0.189164
vt 0.968750 0.225000
vt 0.968750 0.191427
vt 0.968750 0.028407
vt 0.968750 0.067472
vt 0.968750 0.060836
vt 0.968750 0.025000
vt 0.968750 0.058573
vt 0.968750 0.123296
vt 0.968750 0.112500
vt 0.968750 0.111222
vt 0.968750 0.026704
vt 0.968750 0.042524
vt 0.968750 0.038778
vt 0.968750 0.031699
vt 0.968750 0.039645
vt 0.968750 0.048483
vt 0.968750 0.065294
vt 0.968750 0.062059
vt 0.968750 0.037500
vt 0.968750 0.093750
vt 0.968750 0.087941
vt 0.968750 0.084706
vt 0.968750 0.100000
vt 0.968750 0.056250
vt 0.968750 0.050000
vt 0.968750 0.110355
vt 0.968750 0.107476
vt 0.968750 0.101517
vt 0.968750 0.118301
s 1
usemtl colormap.007
f 3/1/1 2/2/2 1/2/3
f 2/2/2 3/1/1 4/1/4
f 7/3/5 6/4/6 5/4/7
f 6/4/6 7/3/5 8/5/8
f 11/4/9 10/4/10 9/4/11
f 10/4/10 11/4/9 12/4/12
f 15/6/13 14/7/14 13/8/15
f 14/7/14 15/6/13 4/1/4
f 17/4/16 9/4/11 16/4/17
f 9/4/11 17/4/16 11/4/9
f 20/4/18 19/4/19 18/4/20
f 19/4/19 20/4/18 21/4/21
f 4/1/4 22/9/22 2/2/2
f 22/9/22 4/1/4 15/6/13
f 25/4/23 24/4/24 23/4/25
f 24/4/24 25/4/23 26/4/26
f 10/4/10 27/4/27 9/4/11
f 27/4/27 10/4/10 28/4/28
f 31/10/29 30/9/30 29/2/31
f 30/9/30 31/10/29 32/11/32
f 29/2/31 34/6/33 33/1/34
f 34/6/33 29/2/31 30/9/30
f 19/4/19 12/4/12 11/4/9
f 12/4/12 19/4/19 35/4/35
f 38/7/36 37/5/37 36/5/38
f 37/5/37 38/7/36 39/7/39
f 2/2/2 41/11/40 40/10/41
f 41/11/40 2/2/2 22/9/22
f 43/4/42 42/4/43 24/4/24
f 42/4/43 43/4/42 44/4/44
f 45/1/45 39/7/39 38/7/36
f 39/7/39 45/1/45 33/1/34
f 48/4/46 47/4/47 46/4/48
f 47/4/47 48/4/46 49/4/49
f 52/10/50 51/12/51 50/12/52
f 51/12/51 52/10/50 40/10/41
f 53/4/53 44/4/44 43/4/42
f 44/4/44 53/4/53 54/4/54
f 21/4/21 35/4/35 19/4/19
f 35/4/35 21/4/21 55/4/55
f 23/4/25 42/4/43 56/4/56
f 42/4/43 23/4/25 24/4/24
f 58/4/57 56/4/56 57/4/58
f 56/4/56 58/4/57 23/4/25
f 18/4/20 11/4/9 17/4/16
f 11/4/9 18/4/20 19/4/19
f 49/4/49 57/4/58 47/4/47
f 57/4/58 49/4/49 58/4/57
f 39/7/39 34/6/33 59/8/59
f 34/6/33 39/7/39 33/1/34
f 9/4/11 60/4/60 16/4/17
f 60/4/60 9/4/11 27/4/27
f 1/2/3 40/10/41 52/10/50
f 40/10/41 1/2/3 2/2/2
f 51/12/51 32/11/32 31/10/29
f 32/11/32 51/12/51 61/13/61
f 37/5/37 59/8/59 62/3/62
f 59/8/59 37/5/37 39/7/39
f 40/10/41 61/13/61 51/12/51
f 61/13/61 40/10/41 41/11/40
f 4/1/4 63/7/63 14/7/14
f 63/7/63 4/1/4 3/1/1
f 36/5/38 21/4/21 20/4/18
f 21/4/21 36/5/38 37/5/37
f 13/8/15 8/5/8 7/3/5
f 8/5/8 13/8/15 14/7/14
f 37/5/37 55/4/55 21/4/21
f 55/4/55 37/5/37 62/3/62
f 64/2/64 33/1/34 45/1/45
f 33/1/34 64/2/64 29/2/31
f 8/5/8 65/4/65 6/4/6
f 65/4/65 8/5/8 66/5/66
f 67/4/67 23/4/25 58/4/57
f 23/4/25 67/4/67 25/4/23
f 26/4/26 43/4/42 24/4/24
f 43/4/42 26/4/26 68/4/68
f 70/9/69 52/10/50 69/11/70
f 52/10/50 70/9/69 1/2/3
f 28/4/28 48/4/46 27/4/27
f 48/4/46 28/4/28 71/4/71
f 14/7/14 66/5/66 8/5/8
f 66/5/66 14/7/14 63/7/63
f 6/4/6 54/4/54 53/4/53
f 54/4/54 6/4/6 65/4/65
f 72/4/72 6/4/6 53/4/53
f 6/4/6 72/4/72 5/4/7
f 73/4/73 58/4/57 49/4/49
f 58/4/57 73/4/73 67/4/67
f 71/4/71 49/4/49 48/4/46
f 49/4/49 71/4/71 73/4/73
f 74/10/74 29/2/31 64/2/64
f 29/2/31 74/10/74 31/10/29
f 27/4/27 46/4/48 60/4/60
f 46/4/48 27/4/27 48/4/46
f 68/4/68 53/4/53 43/4/42
f 53/4/53 68/4/68 72/4/72
f 50/12/52 31/10/29 74/10/74
f 31/10/29 50/12/52 51/12/51
f 76/9/75 45/1/45 75/6/76
f 45/1/45 76/9/75 64/2/64
f 60/4/60 78/4/77 77/4/78
f 78/4/77 60/4/60 46/4/48
f 80/13/79 74/10/74 79/11/80
f 74/10/74 80/13/79 50/12/52
f 79/11/80 64/2/64 76/9/75
f 64/2/64 79/11/80 74/10/74
f 66/5/66 82/8/81 81/3/82
f 82/8/81 66/5/66 63/7/63
f 84/3/83 20/4/18 83/4/84
f 20/4/18 84/3/83 36/5/38
f 85/4/85 18/4/20 17/4/16
f 18/4/20 85/4/85 86/4/86
f 75/6/76 38/7/36 87/8/87
f 38/7/36 75/6/76 45/1/45
f 16/4/17 77/4/78 88/4/88
f 77/4/78 16/4/17 60/4/60
f 46/4/48 89/4/89 78/4/77
f 89/4/89 46/4/48 47/4/47
f 86/4/86 20/4/18 18/4/20
f 20/4/18 86/4/86 83/4/84
f 88/4/88 17/4/16 16/4/17
f 17/4/16 88/4/88 85/4/85
f 63/7/63 90/6/90 82/8/81
f 90/6/90 63/7/63 3/1/1
f 44/4/44 91/4/91 42/4/43
f 91/4/91 44/4/44 92/4/92
f 65/4/65 93/4/93 54/4/54
f 93/4/93 65/4/65 94/4/94
f 47/4/47 95/4/95 89/4/89
f 95/4/95 47/4/47 57/4/58
f 90/6/90 1/2/3 70/9/69
f 1/2/3 90/6/90 3/1/1
f 69/11/70 50/12/52 80/13/79
f 50/12/52 69/11/70 52/10/50
f 54/4/54 92/4/92 44/4/44
f 92/4/92 54/4/54 93/4/93
f 56/4/56 91/4/91 96/4/96
f 91/4/91 56/4/56 42/4/43
f 66/5/66 94/4/94 65/4/65
f 94/4/94 66/5/66 81/3/82
f 81/3/97 93/4/97 94/4/97
f 93/4/97 81/3/97 92/4/97
f 92/4/97 81/3/97 82/8/97
f 92/4/97 82/8/97 90/6/97
f 92/4/97 90/6/97 91/4/97
f 91/4/97 90/6/97 70/9/97
f 91/4/97 70/9/97 96/4/97
f 96/4/97 70/9/97 69/11/97
f 96/4/97 69/11/97 95/4/97
f 95/4/97 69/11/97 80/13/97
f 95/4/97 80/13/97 89/4/97
f 89/4/97 80/13/97 79/11/97
f 89/4/97 79/11/97 78/4/97
f 78/4/97 79/11/97 76/9/97
f 78/4/97 76/9/97 77/4/97
f 77/4/97 76/9/97 75/6/97
f 77/4/97 75/6/97 88/4/97
f 88/4/97 75/6/97 87/8/97
f 88/4/97 87/8/97 85/4/97
f 85/4/97 87/8/97 84/3/97
f 85/4/97 84/3/97 86/4/97
f 86/4/97 84/3/97 83/4/97
f 57/4/58 96/4/96 95/4/95
f 96/4/96 57/4/58 56/4/56
f 87/8/87 36/5/38 84/3/83
f 36/5/38 87/8/87 38/7/36
f 72/4/98 7/3/98 5/4/98
f 7/3/98 72/4/98 68/4/98
f 7/3/98 68/4/98 13/8/98
f 13/8/98 68/4/98 26/4/98
f 13/8/98 26/4/98 97/4/98
f 97/4/98 15/6/98 13/8/98
f 97/4/98 26/4/98 98/4/98
f 15/6/98 97/4/98 99/14/98
f 98/4/98 26/4/98 25/4/98
f 15/6/98 99/14/98 22/9/98
f 98/4/98 25/4/98 100/4/98
f 100/4/98 25/4/98 101/4/98
f 101/4/98 25/4/98 102/4/98
f 102/4/98 25/4/98 67/4/98
f 102/4/98 67/4/98 103/4/98
f 103/4/98 67/4/98 73/4/98
f 103/4/98 73/4/98 104/4/98
f 22/9/98 99/14/98 105/15/98
f 22/9/98 105/15/98 106/16/98
f 22/9/98 106/16/98 107/17/98
f 22/9/98 107/17/98 41/11/98
f 41/11/98 107/17/98 108/18/98
f 104/4/98 73/4/98 71/4/98
f 104/4/98 71/4/98 109/4/98
f 109/4/98 71/4/98 110/4/98
f 110/4/98 71/4/98 28/4/98
f 110/4/98 28/4/98 111/4/98
f 41/11/98 108/18/98 61/13/98
f 61/13/98 108/18/98 112/19/98
f 61/13/98 112/19/98 113/18/98
f 61/13/98 113/18/98 32/11/98
f 32/11/98 113/18/98 114/17/98
f 32/11/98 114/17/98 30/9/98
f 30/9/98 114/17/98 115/16/98
f 111/4/98 28/4/98 10/4/98
f 30/9/98 115/16/98 34/6/98
f 111/4/98 10/4/98 116/4/98
f 116/4/98 10/4/98 117/4/98
f 34/6/98 115/16/98 118/15/98
f 34/6/98 118/15/98 119/14/98
f 117/4/98 10/4/98 120/4/98
f 34/6/98 119/14/98 120/4/98
f 120/4/98 10/4/98 12/4/98
f 34/6/98 120/4/98 59/8/98
f 59/8/98 120/4/98 12/4/98
f 59/8/98 12/4/98 35/4/98
f 59/8/98 35/4/98 62/3/98
f 62/3/98 35/4/98 55/4/98
f 123/20/98 122/21/98 121/22/98
f 122/21/98 123/20/98 124/23/98
f 122/21/98 124/23/98 125/24/98
f 125/24/98 124/23/98 126/25/98
f 125/24/98 126/25/98 127/26/98
f 127/26/98 126/25/98 128/22/98
f 126/25/98 129/27/98 128/22/98
f 127/26/98 128/22/98 130/28/98
f 129/27/98 126/25/98 131/29/98
f 129/27/98 131/29/98 132/30/98
f 132/30/98 131/29/98 133/31/98
f 127/26/98 130/28/98 134/32/98
f 134/32/98 130/28/98 135/33/98
f 134/32/98 135/33/98 136/34/98
f 133/31/98 131/29/98 137/35/98
f 133/31/98 137/35/98 138/36/98
f 138/36/98 137/35/98 139/37/98
f 139/37/98 137/35/98 140/38/98
f 139/37/98 140/38/98 141/39/98
f 134/32/98 136/34/98 142/40/98
f 142/40/98 136/34/98 143/41/98
f 142/40/98 143/41/98 144/42/98
f 141/39/98 140/38/98 145/35/98
f 141/39/98 145/35/98 146/37/98
f 146/37/98 145/35/98 147/36/98
f 142/40/98 144/42/98 148/43/98
f 148/43/98 144/42/98 149/44/98
f 148/43/98 149/44/98 150/42/98
f 148/43/98 150/42/98 151/40/98
f 151/40/98 150/42/98 152/41/98
f 147/36/98 145/35/98 153/29/98
f 147/36/98 153/29/98 154/31/98
f 154/31/98 153/29/98 155/30/98
f 151/40/98 152/41/98 156/32/98
f 156/32/98 152/41/98 157/34/98
f 156/32/98 157/34/98 158/33/98
f 155/30/98 153/29/98 159/25/98
f 156/32/98 158/33/98 160/26/98
f 155/30/98 159/25/98 161/27/98
f 160/26/98 158/33/98 162/28/98
f 161/27/98 159/25/98 163/22/98
f 160/26/98 162/28/98 163/22/98
f 160/26/98 163/22/98 159/25/98
f 160/26/98 159/25/98 164/23/98
f 160/26/98 164/23/98 165/24/98
f 165/24/98 164/23/98 166/20/98
f 165/24/98 166/20/98 167/21/98
f 167/21/98 166/20/98 168/22/98
f 171/45/99 170/46/100 169/47/99
f 170/46/100 171/45/99 172/22/100
f 175/48/101 174/49/102 173/50/101
f 174/49/102 175/48/101 176/51/102
f 179/52/103 178/49/104 177/53/103
f 178/49/104 179/52/103 180/51/104
f 183/24/105 182/54/106 181/55/106
f 182/54/106 183/24/105 184/24/105
f 185/56/107 175/48/101 173/50/101
f 175/48/101 185/56/107 186/43/107
f 189/57/108 188/58/109 187/59/109
f 188/58/109 189/57/108 190/60/108
f 183/24/105 191/59/110 184/24/105
f 191/59/110 183/24/105 192/58/110
f 176/51/102 193/53/111 174/49/102
f 193/53/111 176/51/102 194/52/111
f 187/59/109 196/24/112 195/24/112
f 196/24/112 187/59/109 188/58/109
f 198/48/113 185/56/107 197/50/113
f 185/56/107 198/48/113 186/43/107
f 201/61/114 200/55/115 199/62/114
f 200/55/115 201/61/114 202/54/115
f 205/63/116 204/64/117 203/65/116
f 204/64/117 205/63/116 206/66/117
f 178/49/104 198/48/113 197/50/113
f 198/48/113 178/49/104 180/51/104
f 206/66/117 169/47/99 204/64/117
f 169/47/99 206/66/117 171/45/99
f 207/65/118 190/60/108 189/57/108
f 190/60/108 207/65/118 208/63/118
f 181/55/106 210/61/119 209/62/119
f 210/61/119 181/55/106 182/54/106
f 202/54/98 187/59/98 195/24/98
f 187/59/98 202/54/98 201/61/98
f 187/59/98 201/61/98 189/57/98
f 189/57/98 201/61/98 177/53/98
f 189/57/98 177/53/98 207/65/98
f 207/65/98 177/53/98 178/49/98
f 207/65/98 178/49/98 211/64/98
f 211/64/98 178/49/98 197/50/98
f 211/64/98 197/50/98 212/47/98
f 212/47/98 197/50/98 185/56/98
f 212/47/98 185/56/98 170/46/98
f 170/46/98 185/56/98 173/50/98
f 170/46/98 173/50/98 169/47/98
f 169/47/98 173/50/98 174/49/98
f 169/47/98 174/49/98 204/64/98
f 204/64/98 174/49/98 193/53/98
f 204/64/98 193/53/98 203/65/98
f 203/65/98 193/53/98 210/61/98
f 203/65/98 210/61/98 213/57/98
f 213/57/98 210/61/98 182/54/98
f 213/57/98 182/54/98 191/59/98
f 191/59/98 182/54/98 184/24/98
f 172/22/100 212/47/120 170/46/100
f 212/47/120 172/22/100 214/45/120
f 215/66/121 207/65/118 211/64/121
f 207/65/118 215/66/121 208/63/118
f 214/45/120 211/64/121 212/47/120
f 211/64/121 214/45/120 215/66/121
f 177/53/103 199/62/114 179/52/103
f 199/62/114 177/53/103 201/61/114
f 216/60/122 203/65/116 213/57/122
f 203/65/116 216/60/122 205/63/116
f 209/62/119 193/53/111 194/52/111
f 193/53/111 209/62/119 210/61/119
f 202/54/115 196/24/112 200/55/115
f 196/24/112 202/54/115 195/24/112
f 192/58/110 213/57/122 191/59/110
f 213/57/122 192/58/110 216/60/122
